<?xml version="1.0" encoding="UTF-8"?> <svg xmlns="http://www.w3.org/2000/svg" fill="none" viewBox="0 0 78 64"><path fill-rule="evenodd" clip-rule="evenodd" d="M16 10a1 1 0 0 0-1 1v38.57a1 1 0 0 0 1 1h41.64a4 4 0 0 1 2.9 1.24L66 57.52v-2.95a4 4 0 0 1 4-4h4a1 1 0 0 0 1-1V11a1 1 0 0 0-1-1H16Zm53 44.57a1 1 0 0 1 1-1h4a4 4 0 0 0 4-4V11a4 4 0 0 0-4-4H16a4 4 0 0 0-4 4v38.57a4 4 0 0 0 4 4h41.64a1 1 0 0 1 .73.31l8.9 9.32a1 1 0 0 0 1.73-.7v-7.93Z" fill="#2F2F2F"></path><circle cx="33" cy="30" r="3" fill="#2F2F2F"></circle><circle cx="45" cy="30" r="3" fill="#2F2F2F"></circle><circle cx="57" cy="30" r="3" fill="#2F2F2F"></circle><circle cx="13" cy="13" r="13" fill="#2F2F2F"></circle><path fill-rule="evenodd" clip-rule="evenodd" d="m18.44 10.41-6.12 6.42-4.72-4.2.8-.9 3.85 3.44 5.32-5.58.87.82Z" fill="#fff"></path></svg> 