<?xml version="1.0" encoding="UTF-8"?> <svg xmlns="http://www.w3.org/2000/svg" fill="none" viewBox="0 0 175 64"><path d="M14.1 21.85a2 2 0 0 1 3.8 0l1.24 3.82a2 2 0 0 0 1.9 1.39h4.02a2 2 0 0 1 1.18 3.61l-3.25 2.36a2 2 0 0 0-.73 2.24l1.24 3.82a2 2 0 0 1-3.08 2.24l-3.24-2.36a2 2 0 0 0-2.36 0l-3.24 2.36a2 2 0 0 1-3.08-2.24l1.24-3.82A2 2 0 0 0 9 33.03l-3.25-2.36a2 2 0 0 1 1.18-3.61h4.01a2 2 0 0 0 1.9-1.39l1.25-3.82ZM49.6 21.66a2 2 0 0 1 3.8 0l1.35 4.03a2 2 0 0 0 1.9 1.37h4.23a2 2 0 0 1 1.15 3.63l-3.32 2.34a2 2 0 0 0-.74 2.27l1.3 3.86a2 2 0 0 1-3.06 2.27l-3.56-2.5a2 2 0 0 0-2.3 0l-3.56 2.5a2 2 0 0 1-3.05-2.27l1.3-3.86a2 2 0 0 0-.75-2.27l-3.32-2.34a2 2 0 0 1 1.15-3.63h4.24a2 2 0 0 0 1.9-1.37l1.34-4.03ZM121.6 21.66a2 2 0 0 1 3.8 0l1.35 4.03a2 2 0 0 0 1.9 1.37h4.23a2 2 0 0 1 1.15 3.63l-3.32 2.34a2 2 0 0 0-.74 2.27l1.3 3.86a2 2 0 0 1-3.06 2.27l-3.56-2.5a2 2 0 0 0-2.3 0l-3.56 2.5a2 2 0 0 1-3.05-2.27l1.3-3.86a2 2 0 0 0-.75-2.27l-3.32-2.34a2 2 0 0 1 1.15-3.63h4.24a2 2 0 0 0 1.9-1.37l1.34-4.03ZM85.6 21.66a2 2 0 0 1 3.8 0l1.35 4.03a2 2 0 0 0 1.9 1.37h4.23a2 2 0 0 1 1.15 3.63l-3.32 2.34a2 2 0 0 0-.74 2.27l1.3 3.86a2 2 0 0 1-3.06 2.27l-3.56-2.5a2 2 0 0 0-2.3 0l-3.56 2.5a2 2 0 0 1-3.05-2.27l1.3-3.86a2 2 0 0 0-.75-2.27l-3.32-2.34a2 2 0 0 1 1.15-3.63h4.24a2 2 0 0 0 1.9-1.37l1.34-4.03ZM157.1 21.85a2 2 0 0 1 3.8 0l1.24 3.82a2 2 0 0 0 1.9 1.39h4.02a2 2 0 0 1 1.18 3.61l-3.25 2.36a2 2 0 0 0-.73 2.24l1.24 3.82a2 2 0 0 1-3.07 2.24l-3.25-2.36a2 2 0 0 0-2.36 0l-3.25 2.36a2 2 0 0 1-3.07-2.24l1.24-3.82a2 2 0 0 0-.73-2.24l-3.25-2.36a2 2 0 0 1 1.18-3.61h4.02a2 2 0 0 0 1.9-1.39l1.24-3.82Z" fill="#2F2F2F"></path></svg> 