<?xml version="1.0" encoding="UTF-8"?> <svg xmlns="http://www.w3.org/2000/svg" fill="none" viewBox="0 0 76 64"><path d="M74.12 25.1a10.48 10.48 0 0 0-3.98-4.77c-5.17-3.28-13.05-3.51-18.37-.55a10.67 10.67 0 0 0-5.41 7.43c-1.08 4.96-.8 10.85 3.02 14.57 4.45 3.9 10.94 4.77 16.7 3.16a7.5 7.5 0 0 0 1.74-.59l.17-.07c1.8-.74 3.5-1.95 4.77-3.6 2.95-4.3 3.15-10.74 1.36-15.58m-9.39 11.13c-.2.94-.84 1.92-1.83 2.27-1.59.7-3.74.5-5.21-.31-1.23-.87-1.4-2.31-1.55-3.68-.12-2.69-.32-5.54.44-8 .59-1.53 2.22-1.92 3.7-2.04 1.55 0 3.06.24 4.01 1.49.6.9.56 2.07.68 3.12-.04 2.23.16 4.88-.24 7.15ZM17.6 38.66c-1.31-.08-2.78.03-4.05-.12l.03-13.72.09-.11 3.93-.04c.04-2.23.08-4.61-.04-6.64l-15-.05-2.46.05c-.04 2.07-.04 4.49 0 6.6 1.35.04 2.62 0 3.94.12v13.28l-.04.55-3.94.08a84.4 84.4 0 0 0 0 6.44H17.6v-6.44Zm44.14 9.37a30.5 30.5 0 0 1-6.07 6.48c-.09.13-.33.08-.4-.03-1-.63-2.07-1.14-3.03-1.76A32.38 32.38 0 0 0 55.7 48h-1.23c-1 1.45-2.03 2.97-3.34 4.26a43.05 43.05 0 0 0-5.13-1.8l-.2-.15c.28-.79.8-1.53.95-2.31h-1.07l-1.07 2.1c-2.35-.5-4.93-.78-7.32-.93-.12-.35.04-.86-.12-1.17h-1.04c-.08.47.12.82-.11 1.21a46 46 0 0 0-7.16.86L27.78 48c-.4 0-.83-.08-1.1.04l.98 2.3-.12.12a50.2 50.2 0 0 0-5.25 1.84l-.15-.08a31.1 31.1 0 0 1-3.07-3.87c-.2-.66-1-.27-1.43-.35.95 1.72 2.23 3.24 3.5 4.8-1.08.63-2.15 1.33-3.26 1.85a28.67 28.67 0 0 1-6.29-6.6c-.47-.08-.79-.05-1.27 0A31.19 31.19 0 0 0 22.29 58.7s0-.04.05-.04c.03 0 .1.07.03.12a32.89 32.89 0 0 0 10.02 3.08c12.21 1.6 23.87-3.59 30.63-13.83a6.29 6.29 0 0 0-1.28 0m-16.58 3.52.12-.08c1.72.39 3.34.94 4.86 1.68a25.03 25.03 0 0 1-4.42 3.75c-.91.54-1.83 1.13-2.79 1.6l-1.7-.74.11-.27a46.72 46.72 0 0 0 3.82-5.94m-7.83-1.18c2.27.05 4.53.28 6.64.79l.04.11a40.08 40.08 0 0 1-4.02 6.06c-.68.08-1.3-.2-1.98-.23l-.68-.08c-.08-2.3-.12-4.34 0-6.65Zm-7.68.7c2.07-.38 4.22-.7 6.44-.7l.05 6.61c-.84.2-1.76.2-2.55.4a34.8 34.8 0 0 1-4.13-6.15l.2-.15Zm-6.4 2.12a26.2 26.2 0 0 1 4.85-1.72l.16.04c1.15 2.15 2.58 4.18 4.02 6.2-.56.32-1.24.51-1.8.83a26.8 26.8 0 0 1-7.23-5.24v-.11Zm5.13 6.68a28.26 28.26 0 0 1-9.3-4.38v-.12c.95-.58 1.9-1.2 2.93-1.64a40.61 40.61 0 0 0 7.16 5.51c-.2.24-.51.47-.79.63Zm14.75.5c-4.21.9-8.9.94-13.12-.07-.08-.2.2-.24.32-.35 3.7-2.39 9.46-2.39 13.08.19.12.23-.2.16-.28.23m3.82-1.09-1.87.59c-.32-.16-.6-.4-.87-.63l.08-.12a35.32 35.32 0 0 0 7.04-5.43c1.07.43 2.1 1.02 3.06 1.68a26.88 26.88 0 0 1-7.44 3.91M11.52 15.02a36.66 36.66 0 0 1 3.22-3.87c1.03-.98 1.99-1.91 3.1-2.62 1.04.66 2.19 1.22 3.18 1.84-1.23 1.52-2.5 3.05-3.42 4.68.28.12.8.09 1.2 0 .99-1.44 2.06-2.89 3.34-4.18 1.7.63 3.38 1.3 5.13 1.76l.15.16-.99 2.26c.44.09.72.05 1.15 0 .36-.66.64-1.4 1.04-2.07 2.3.51 4.73.79 7.2.86.31.28.08.86.2 1.21h1.07c.12-.38-.04-.82.12-1.16 2.3-.13 4.73-.36 6.96-.9l.2.03 1.07 2.03c.36 0 .84.08 1.12-.08l-1-2.26.08-.08c1.83-.47 3.54-1.17 5.3-1.87a36.65 36.65 0 0 1 3.42 4.29c.43 0 .87.04 1.19-.08a15.8 15.8 0 0 0-1.71-2.46 16.64 16.64 0 0 0-1.76-2.1v-.2l2.79-1.6.4-.16a29.04 29.04 0 0 1 6.28 6.52c.48 0 .88.16 1.27-.03A31.5 31.5 0 0 0 39.2 1.1l-.04.08-.08-.08a18.14 18.14 0 0 0-3.54-.04c-.44-.04-.96 0-1.47.04a31.18 31.18 0 0 0-23.83 13.94c.4-.03.88.13 1.28-.03m16.5-3.44-.15.04a31.75 31.75 0 0 1-4.74-1.6l.08-.24a31.2 31.2 0 0 1 7.03-5.11c.6.23 1.2.43 1.8.7l-.12.3c-1.51 1.89-2.7 3.92-3.9 5.91Zm7.92 1.06c-1.11.15-2.11-.04-3.23-.13-1.07-.15-2.42-.27-3.5-.62a34.93 34.93 0 0 1 4.14-6.13l2.55.35c.12 2.03.04 4.38.04 6.53m1.23.04c-.08-2.08-.04-4.38 0-6.53l2.46-.35a33.8 33.8 0 0 1 4.1 6.09 28.2 28.2 0 0 1-6.56.79Zm12.69-2.74A26.15 26.15 0 0 1 45 11.58a66.09 66.09 0 0 0-4.1-6.14c.56-.3 1.24-.54 1.84-.85a28.1 28.1 0 0 1 7.2 5.23l-.08.12Zm-5.1-6.68c3.35.86 6.49 2.34 9.35 4.37l-.08.16-2.74 1.52h-.2A34.66 34.66 0 0 0 44 3.92c.08-.27.48-.47.75-.66m-1.58-.4v.09c-3.47 2.5-9.07 2.73-12.73.42-.2-.15-.6-.23-.64-.5a29.83 29.83 0 0 1 13.37 0M18.9 7.7a28.6 28.6 0 0 1 8.24-4.14c.12-.12.2-.23.35-.23v.08c.32.07.56-.28.84-.05.24.2.52.36.71.55a40.47 40.47 0 0 0-7.11 5.5A13.12 13.12 0 0 1 18.9 7.8v-.08Zm17.07 31.25c-3.74 1.02-7.8.24-10.5-2.57-.32-.4-.52-.86-.84-1.25l-5.37.04c-.08 3.16-.12 6.8 0 9.92l5.97-.04.07-1.87c.68.31 1.36.7 2.04 1.05 4.13 1.72 9.46 2.11 13.55 0a8.03 8.03 0 0 0 4.14-8.2c-.43-3.32-3.62-6.33-6.84-7.15l-9.62-2.78-.72-.35c-.31-.27-.51-.62-.44-1.05.76-1.29 2.51-.9 3.82-.86 2.79.39 5.65 1.33 7.28 3.87 1.75 0 3.78.03 5.69-.04.08-3.2-.04-6.02-.08-9.26a90.09 90.09 0 0 0-5.77.04c-.08.46.08 1.13-.12 1.6l-1.83-.98c-4.38-1.84-10.5-2.03-14.48.82-2.58 1.88-3.38 5.24-2.7 8.2.52 2.82 3.22 4.89 5.8 5.86 3.54 1.25 7.24 2.15 10.83 3.36.35.16.83.52.75.95 0 .34-.36.54-.63.7" fill="#2F2F2F"></path></svg> 